<svg width="30" height="16" viewBox="0 0 30 16" fill="none" xmlns="http://www.w3.org/2000/svg">
<path fill-rule="evenodd" clip-rule="evenodd" d="M29.7282 0C28.3942 4.84257 22.3073 8.50026 14.9999 8.50026C7.69271 8.50026 1.6059 4.84279 0.27171 0.000443101C0.0933832 0.647817 0 1.31637 0 2.00018C0 7.79917 6.71573 12.5002 15 12.5002C23.2843 12.5002 30 7.79917 30 2.00018C30 1.31621 29.9066 0.647512 29.7282 0Z" fill="#6C757D"/>
<line x1="2.29289" y1="10.7931" x2="5.29289" y2="7.79314" stroke="#6C757D" stroke-width="2"/>
<line x1="2.29289" y1="10.7931" x2="5.29289" y2="7.79314" stroke="#6C757D" stroke-width="2"/>
<line x1="2.29289" y1="10.7931" x2="5.29289" y2="7.79314" stroke="#6C757D" stroke-width="2"/>
<line x1="8.10557" y1="14.053" x2="10.1056" y2="10.053" stroke="#6C757D" stroke-width="2"/>
<line x1="8.10557" y1="14.053" x2="10.1056" y2="10.053" stroke="#6C757D" stroke-width="2"/>
<line x1="8.10557" y1="14.053" x2="10.1056" y2="10.053" stroke="#6C757D" stroke-width="2"/>
<line x1="16" y1="15.4941" x2="16.0244" y2="11.4944" stroke="#6C757D" stroke-width="2"/>
<line x1="16" y1="15.4941" x2="16.0244" y2="11.4944" stroke="#6C757D" stroke-width="2"/>
<line x1="16" y1="15.4941" x2="16.0244" y2="11.4944" stroke="#6C757D" stroke-width="2"/>
<line x1="23.0715" y1="13.8716" x2="21.0715" y2="8.87163" stroke="#6C757D" stroke-width="2"/>
<line x1="23.0715" y1="13.8716" x2="21.0715" y2="8.87163" stroke="#6C757D" stroke-width="2"/>
<line x1="23.0715" y1="13.8716" x2="21.0715" y2="8.87163" stroke="#6C757D" stroke-width="2"/>
<line x1="28.2929" y1="10.2074" x2="25.2929" y2="7.20735" stroke="#6C757D" stroke-width="2"/>
<line x1="28.2929" y1="10.2074" x2="25.2929" y2="7.20735" stroke="#6C757D" stroke-width="2"/>
<line x1="28.2929" y1="10.2074" x2="25.2929" y2="7.20735" stroke="#6C757D" stroke-width="2"/>
</svg>
