<svg width="24" height="25" viewBox="0 0 24 25" fill="none" xmlns="http://www.w3.org/2000/svg">
<path d="M3.03157 23.5701C9.47366 12.0589 19.2918 19.2348 20.7158 11.511" stroke="white" stroke-width="2"/>
<path d="M6.22105 13.5667C6.22105 15.3257 4.91765 16.6667 3.41053 16.6667C1.9034 16.6667 0.6 15.3257 0.6 13.5667C0.6 11.8077 1.9034 10.4667 3.41053 10.4667C4.91765 10.4667 6.22105 11.8077 6.22105 13.5667Z" fill="white" stroke="#6C757D" stroke-width="1.2"/>
<path d="M0.487244 15.4165L3.41053 16.8554L6.33386 15.4165L3.41055 22.5522L0.487244 15.4165Z" fill="#6C757D"/>
<ellipse cx="3.41053" cy="13.5667" rx="0.974436" ry="1.05714" fill="#6C757D"/>
<path d="M23.4 3.69999C23.4 5.45902 22.0966 6.79997 20.5895 6.79997C19.0824 6.79997 17.779 5.45902 17.779 3.69999C17.779 1.94096 19.0824 0.6 20.5895 0.6C22.0966 0.6 23.4 1.94096 23.4 3.69999Z" fill="white" stroke="#6C757D" stroke-width="1.2"/>
<path d="M17.6662 5.55005L20.5895 6.98893L23.5128 5.55005L20.5895 12.6857L17.6662 5.55005Z" fill="#6C757D"/>
<ellipse cx="20.5895" cy="3.69996" rx="0.974436" ry="1.05714" fill="#6C757D"/>
</svg>
