<svg width="32" height="32" viewBox="0 0 32 32" fill="none" xmlns="http://www.w3.org/2000/svg">
<path fill-rule="evenodd" clip-rule="evenodd" d="M0 16.6001C2.05187 11.0484 8.43881 7 16 7C23.5611 7 29.9479 11.0482 32 16.5998C29.9481 22.1515 23.5611 26.1999 15.9999 26.1999C8.43884 26.1999 2.05201 22.1517 0 16.6001Z" fill="#6C757D"/>
<path fill-rule="evenodd" clip-rule="evenodd" d="M1.88232 16.6001C3.93717 12.4053 9.48216 9.3999 16.0001 9.3999C22.5178 9.3999 28.0626 12.4051 30.1176 16.5996C28.0628 20.7944 22.5178 23.7999 15.9999 23.7999C9.48218 23.7999 3.93738 20.7947 1.88232 16.6001Z" fill="white"/>
<ellipse cx="16" cy="16.5999" rx="8" ry="8.39995" fill="#6C757D"/>
<ellipse cx="15.9999" cy="16.6001" rx="5.71429" ry="5.99996" fill="white"/>
<ellipse cx="16.0001" cy="16.6" rx="3.42857" ry="3.59998" fill="#6C757D"/>
</svg>
