<svg width="32" height="32" viewBox="0 0 32 32" fill="none" xmlns="http://www.w3.org/2000/svg">
<path fill-rule="evenodd" clip-rule="evenodd" d="M30.7282 8.00001C29.3942 12.8426 23.3073 16.5003 15.9999 16.5003C8.69271 16.5003 2.6059 12.8428 1.27171 8.00044C1.09338 8.64782 1 9.31637 1 10.0002C1 15.7992 7.71573 20.5002 16 20.5002C24.2843 20.5002 31 15.7992 31 10.0002C31 9.31621 30.9066 8.64752 30.7282 8.00001Z" fill="#6C757D"/>
<line x1="3.29289" y1="18.7931" x2="6.29289" y2="15.7931" stroke="#6C757D" stroke-width="2"/>
<line x1="3.29289" y1="18.7931" x2="6.29289" y2="15.7931" stroke="#6C757D" stroke-width="2"/>
<line x1="3.29289" y1="18.7931" x2="6.29289" y2="15.7931" stroke="#6C757D" stroke-width="2"/>
<line x1="9.10557" y1="22.053" x2="11.1056" y2="18.053" stroke="#6C757D" stroke-width="2"/>
<line x1="9.10557" y1="22.053" x2="11.1056" y2="18.053" stroke="#6C757D" stroke-width="2"/>
<line x1="9.10557" y1="22.053" x2="11.1056" y2="18.053" stroke="#6C757D" stroke-width="2"/>
<line x1="17" y1="23.4941" x2="17.0244" y2="19.4944" stroke="#6C757D" stroke-width="2"/>
<line x1="17" y1="23.4941" x2="17.0244" y2="19.4944" stroke="#6C757D" stroke-width="2"/>
<line x1="17" y1="23.4941" x2="17.0244" y2="19.4944" stroke="#6C757D" stroke-width="2"/>
<line x1="24.0715" y1="21.8716" x2="22.0715" y2="16.8716" stroke="#6C757D" stroke-width="2"/>
<line x1="24.0715" y1="21.8716" x2="22.0715" y2="16.8716" stroke="#6C757D" stroke-width="2"/>
<line x1="24.0715" y1="21.8716" x2="22.0715" y2="16.8716" stroke="#6C757D" stroke-width="2"/>
<line x1="29.2929" y1="18.2074" x2="26.2929" y2="15.2074" stroke="#6C757D" stroke-width="2"/>
<line x1="29.2929" y1="18.2074" x2="26.2929" y2="15.2074" stroke="#6C757D" stroke-width="2"/>
<line x1="29.2929" y1="18.2074" x2="26.2929" y2="15.2074" stroke="#6C757D" stroke-width="2"/>
</svg>
