<svg width="26" height="26" viewBox="0 0 26 26" fill="none" xmlns="http://www.w3.org/2000/svg">
<path d="M0.575736 12.5757C0.341421 12.8101 0.341421 13.1899 0.575736 13.4243L4.39411 17.2426C4.62843 17.477 5.00833 17.477 5.24264 17.2426C5.47696 17.0083 5.47696 16.6284 5.24264 16.3941L1.84853 13L5.24264 9.60589C5.47696 9.37157 5.47696 8.99167 5.24264 8.75736C5.00833 8.52304 4.62843 8.52304 4.39411 8.75736L0.575736 12.5757ZM25.4243 13.4243C25.6586 13.1899 25.6586 12.8101 25.4243 12.5757L21.6059 8.75736C21.3716 8.52304 20.9917 8.52304 20.7574 8.75736C20.523 8.99167 20.523 9.37157 20.7574 9.60589L24.1515 13L20.7574 16.3941C20.523 16.6284 20.523 17.0083 20.7574 17.2426C20.9917 17.477 21.3716 17.477 21.6059 17.2426L25.4243 13.4243ZM1 13.6L25 13.6V12.4L1 12.4V13.6Z" fill="white"/>
<path d="M12.3204 25.4243C12.5547 25.6586 12.9346 25.6586 13.169 25.4243L16.9873 21.6059C17.2216 21.3716 17.2216 20.9917 16.9873 20.7574C16.753 20.523 16.3731 20.523 16.1388 20.7574L12.7447 24.1515L9.35058 20.7574C9.11626 20.523 8.73636 20.523 8.50205 20.7574C8.26773 20.9917 8.26773 21.3716 8.50205 21.6059L12.3204 25.4243ZM13.169 0.575735C12.9346 0.341421 12.5547 0.341421 12.3204 0.575735L8.50205 4.39411C8.26773 4.62843 8.26773 5.00833 8.50205 5.24264C8.73636 5.47696 9.11626 5.47696 9.35058 5.24264L12.7447 1.84853L16.1388 5.24264C16.3731 5.47696 16.753 5.47696 16.9873 5.24264C17.2216 5.00833 17.2216 4.62843 16.9873 4.39411L13.169 0.575735ZM13.3447 25V1H12.1447V25H13.3447Z" fill="white"/>
<path d="M12.5326 25.2121C12.6497 25.3293 12.8397 25.3293 12.9568 25.2121L14.866 23.3029C14.9832 23.1858 14.9832 22.9958 14.866 22.8787C14.7489 22.7615 14.5589 22.7615 14.4417 22.8787L12.7447 24.5757L11.0476 22.8787C10.9305 22.7615 10.7405 22.7615 10.6234 22.8787C10.5062 22.9958 10.5062 23.1858 10.6234 23.3029L12.5326 25.2121ZM12.9568 0.787868C12.8397 0.670712 12.6497 0.670712 12.5326 0.787868L10.6234 2.69706C10.5062 2.81421 10.5062 3.00416 10.6234 3.12132C10.7405 3.23848 10.9305 3.23848 11.0476 3.12132L12.7447 1.42426L14.4417 3.12132C14.5589 3.23848 14.7489 3.23848 14.866 3.12132C14.9832 3.00416 14.9832 2.81421 14.866 2.69706L12.9568 0.787868ZM13.0447 25V1H12.4447V25H13.0447Z" fill="#6C757D"/>
<path d="M0.787868 12.7879C0.670711 12.905 0.670711 13.095 0.787868 13.2121L2.69706 15.1213C2.81421 15.2385 3.00416 15.2385 3.12132 15.1213C3.23848 15.0042 3.23848 14.8142 3.12132 14.6971L1.42426 13L3.12132 11.3029C3.23848 11.1858 3.23848 10.9958 3.12132 10.8787C3.00416 10.7615 2.81421 10.7615 2.69706 10.8787L0.787868 12.7879ZM25.2121 13.2121C25.3293 13.095 25.3293 12.905 25.2121 12.7879L23.3029 10.8787C23.1858 10.7615 22.9958 10.7615 22.8787 10.8787C22.7615 10.9958 22.7615 11.1858 22.8787 11.3029L24.5757 13L22.8787 14.6971C22.7615 14.8142 22.7615 15.0042 22.8787 15.1213C22.9958 15.2385 23.1858 15.2385 23.3029 15.1213L25.2121 13.2121ZM1 13.3L25 13.3V12.7L1 12.7V13.3Z" fill="#6C757D"/>
</svg>
