<svg width="252" height="290" viewBox="0 0 252 290" fill="none" xmlns="http://www.w3.org/2000/svg">
<path fill-rule="evenodd" clip-rule="evenodd" d="M126 2L251 74.1661V218.488L126 288.364L1 218.488V74.1661L126 2ZM3.29358 76.5274V211.065L44.2903 93.6115L3.29358 76.5274ZM45.9775 95.7296L123.875 232.299L3.69043 216.88L45.9775 95.7296ZM7.83046 219.7L124.853 285.116V234.713L7.83046 219.7ZM127.147 234.713V285.116L244.17 219.7L127.147 234.713ZM248.706 211.228V76.5104L206.574 93.6175L248.706 211.228ZM205.452 91.6194L247.269 74.6403L131.468 7.78492L205.452 91.6194ZM120.394 7.86471L4.70749 74.6536L45.4118 91.6159L120.394 7.86471ZM125.994 5.0323L48.2731 91.8428H202.604L125.994 5.0323ZM203.178 94.1127H47.689L125.993 231.394L203.178 94.1127ZM128.108 232.301L204.896 95.7254L248.298 216.881L128.108 232.301Z" fill="black" stroke="black" stroke-width="1.8"/>
</svg>
