<svg width="52" height="59" viewBox="0 0 52 59" fill="none" xmlns="http://www.w3.org/2000/svg">
<path fill-rule="evenodd" clip-rule="evenodd" d="M26 2L50 15.8559V43.5658L26 56.9818L2 43.5658V15.8559L26 2ZM2.44037 16.3093V42.1404L10.3117 19.5894L2.44037 16.3093ZM10.6357 19.9961L25.592 46.2174L2.51656 43.2569L10.6357 19.9961ZM3.31145 43.7984L25.7798 56.3582V46.6809L3.31145 43.7984ZM26.2202 46.6809V56.3582L48.6886 43.7984L26.2202 46.6809ZM49.5596 42.1718V16.306L41.4703 19.5906L49.5596 42.1718ZM41.2549 19.2069L49.2837 15.9469L27.0499 3.11071L41.2549 19.2069ZM24.9236 3.12602L2.71184 15.9495L10.5271 19.2062L24.9236 3.12602ZM25.9988 2.5822L11.0764 19.2498H40.708L25.9988 2.5822ZM40.8182 19.6856H10.9643L25.9986 46.0437L40.8182 19.6856ZM26.4047 46.2178L41.148 19.9953L49.4812 43.2572L26.4047 46.2178Z" fill="black" stroke="black" stroke-width="1.8"/>
</svg>
